<svg width="136" height="19" viewBox="0 0 136 19" fill="none" xmlns="http://www.w3.org/2000/svg">
<path d="M0.992 1.2H4.88V14.832H13.304V18H0.992V1.2ZM23.3311 18.288C21.5871 18.288 20.0111 17.912 18.6031 17.16C17.2111 16.408 16.1151 15.376 15.3151 14.064C14.5311 12.736 14.1391 11.248 14.1391 9.6C14.1391 7.952 14.5311 6.472 15.3151 5.16C16.1151 3.832 17.2111 2.792 18.6031 2.04C20.0111 1.288 21.5871 0.912 23.3311 0.912C25.0751 0.912 26.6431 1.288 28.0351 2.04C29.4271 2.792 30.5231 3.832 31.3231 5.16C32.1231 6.472 32.5231 7.952 32.5231 9.6C32.5231 11.248 32.1231 12.736 31.3231 14.064C30.5231 15.376 29.4271 16.408 28.0351 17.16C26.6431 17.912 25.0751 18.288 23.3311 18.288ZM23.3311 14.976C24.3231 14.976 25.2191 14.752 26.0191 14.304C26.8191 13.84 27.4431 13.2 27.8911 12.384C28.3551 11.568 28.5871 10.64 28.5871 9.6C28.5871 8.56 28.3551 7.632 27.8911 6.816C27.4431 6 26.8191 5.368 26.0191 4.92C25.2191 4.456 24.3231 4.224 23.3311 4.224C22.3391 4.224 21.4431 4.456 20.6431 4.92C19.8431 5.368 19.2111 6 18.7471 6.816C18.2991 7.632 18.0751 8.56 18.0751 9.6C18.0751 10.64 18.2991 11.568 18.7471 12.384C19.2111 13.2 19.8431 13.84 20.6431 14.304C21.4431 14.752 22.3391 14.976 23.3311 14.976ZM46.7971 9.336H50.3491V16.152C49.4371 16.84 48.3811 17.368 47.1811 17.736C45.9811 18.104 44.7731 18.288 43.5571 18.288C41.8131 18.288 40.2451 17.92 38.8531 17.184C37.4611 16.432 36.3651 15.4 35.5651 14.088C34.7811 12.76 34.3891 11.264 34.3891 9.6C34.3891 7.936 34.7811 6.448 35.5651 5.136C36.3651 3.808 37.4691 2.776 38.8771 2.04C40.2851 1.288 41.8691 0.912 43.6291 0.912C45.1011 0.912 46.4371 1.16 47.6371 1.656C48.8371 2.152 49.8451 2.872 50.6611 3.816L48.1651 6.12C46.9651 4.856 45.5171 4.224 43.8211 4.224C42.7491 4.224 41.7971 4.448 40.9651 4.896C40.1331 5.344 39.4851 5.976 39.0211 6.792C38.5571 7.608 38.3251 8.544 38.3251 9.6C38.3251 10.64 38.5571 11.568 39.0211 12.384C39.4851 13.2 40.1251 13.84 40.9411 14.304C41.7731 14.752 42.7171 14.976 43.7731 14.976C44.8931 14.976 45.9011 14.736 46.7971 14.256V9.336ZM62.0968 18.288C60.3528 18.288 58.7768 17.912 57.3688 17.16C55.9768 16.408 54.8808 15.376 54.0808 14.064C53.2968 12.736 52.9048 11.248 52.9048 9.6C52.9048 7.952 53.2968 6.472 54.0808 5.16C54.8808 3.832 55.9768 2.792 57.3688 2.04C58.7768 1.288 60.3528 0.912 62.0968 0.912C63.8408 0.912 65.4088 1.288 66.8008 2.04C68.1928 2.792 69.2888 3.832 70.0888 5.16C70.8888 6.472 71.2888 7.952 71.2888 9.6C71.2888 11.248 70.8888 12.736 70.0888 14.064C69.2888 15.376 68.1928 16.408 66.8008 17.16C65.4088 17.912 63.8408 18.288 62.0968 18.288ZM62.0968 14.976C63.0888 14.976 63.9848 14.752 64.7848 14.304C65.5848 13.84 66.2088 13.2 66.6568 12.384C67.1208 11.568 67.3528 10.64 67.3528 9.6C67.3528 8.56 67.1208 7.632 66.6568 6.816C66.2088 6 65.5848 5.368 64.7848 4.92C63.9848 4.456 63.0888 4.224 62.0968 4.224C61.1048 4.224 60.2088 4.456 59.4088 4.92C58.6088 5.368 57.9768 6 57.5128 6.816C57.0648 7.632 56.8408 8.56 56.8408 9.6C56.8408 10.64 57.0648 11.568 57.5128 12.384C57.9768 13.2 58.6088 13.84 59.4088 14.304C60.2088 14.752 61.1048 14.976 62.0968 14.976ZM74.894 18.192C74.238 18.192 73.686 17.968 73.238 17.52C72.79 17.072 72.566 16.512 72.566 15.84C72.566 15.152 72.79 14.6 73.238 14.184C73.686 13.752 74.238 13.536 74.894 13.536C75.55 13.536 76.102 13.752 76.55 14.184C76.998 14.6 77.222 15.152 77.222 15.84C77.222 16.512 76.998 17.072 76.55 17.52C76.102 17.968 75.55 18.192 74.894 18.192ZM87.5945 18.288C85.8825 18.288 84.3305 17.92 82.9385 17.184C81.5625 16.432 80.4745 15.4 79.6745 14.088C78.8905 12.76 78.4985 11.264 78.4985 9.6C78.4985 7.936 78.8905 6.448 79.6745 5.136C80.4745 3.808 81.5625 2.776 82.9385 2.04C84.3305 1.288 85.8905 0.912 87.6185 0.912C89.0745 0.912 90.3865 1.168 91.5545 1.68C92.7385 2.192 93.7305 2.928 94.5305 3.888L92.0345 6.192C90.8985 4.88 89.4905 4.224 87.8105 4.224C86.7705 4.224 85.8425 4.456 85.0265 4.92C84.2105 5.368 83.5705 6 83.1065 6.816C82.6585 7.632 82.4345 8.56 82.4345 9.6C82.4345 10.64 82.6585 11.568 83.1065 12.384C83.5705 13.2 84.2105 13.84 85.0265 14.304C85.8425 14.752 86.7705 14.976 87.8105 14.976C89.4905 14.976 90.8985 14.312 92.0345 12.984L94.5305 15.288C93.7305 16.264 92.7385 17.008 91.5545 17.52C90.3705 18.032 89.0505 18.288 87.5945 18.288ZM104.941 18.288C103.197 18.288 101.621 17.912 100.213 17.16C98.8205 16.408 97.7245 15.376 96.9245 14.064C96.1405 12.736 95.7485 11.248 95.7485 9.6C95.7485 7.952 96.1405 6.472 96.9245 5.16C97.7245 3.832 98.8205 2.792 100.213 2.04C101.621 1.288 103.197 0.912 104.941 0.912C106.685 0.912 108.253 1.288 109.645 2.04C111.037 2.792 112.133 3.832 112.933 5.16C113.733 6.472 114.133 7.952 114.133 9.6C114.133 11.248 113.733 12.736 112.933 14.064C112.133 15.376 111.037 16.408 109.645 17.16C108.253 17.912 106.685 18.288 104.941 18.288ZM104.941 14.976C105.933 14.976 106.829 14.752 107.629 14.304C108.429 13.84 109.053 13.2 109.501 12.384C109.965 11.568 110.197 10.64 110.197 9.6C110.197 8.56 109.965 7.632 109.501 6.816C109.053 6 108.429 5.368 107.629 4.92C106.829 4.456 105.933 4.224 104.941 4.224C103.949 4.224 103.053 4.456 102.253 4.92C101.453 5.368 100.821 6 100.357 6.816C99.9085 7.632 99.6845 8.56 99.6845 9.6C99.6845 10.64 99.9085 11.568 100.357 12.384C100.821 13.2 101.453 13.84 102.253 14.304C103.053 14.752 103.949 14.976 104.941 14.976ZM132.343 18L132.319 7.92L127.375 16.224H125.623L120.703 8.136V18H117.055V1.2H120.271L126.559 11.64L132.751 1.2H135.943L135.991 18H132.343Z" fill="#DE6354"/>
</svg>
